# AST/ASF file generated using VICON BodyLanguage
# -----------------------------------------------
:version 1.10
:name VICON
:units
  mass 1.0
  length 0.45
  angle deg
:documentation
   .ast/.asf automatically generated from VICON data using
   VICON BodyBuilder and BodyLanguage model FoxedUp or BRILLIANT.MOD
:root
   order TX TY TZ RX RY RZ
   axis XYZ
   position 0 0 0  
   orientation 0 0 0 
:bonedata
  begin
     id 1 
     name lhipjoint
     direction 0.623415 -0.642378 0.445763 
     length 2.49859 
     axis 0 0 0  XYZ
  end
  begin
     id 2 
     name lfemur
     direction 0.34202 -0.939693 0  
     length 6.69689  
     axis 0 0 20  XYZ
    dof rx ry rz
    limits (-160.0 20.0)
           (-70.0 70.0)
           (-60.0 70.0)
  end
  begin
     id 3 
     name ltibia
     direction 0.34202 -0.939693 0   
     length 7.37574   
     axis 0 0 20   XYZ
    dof rx
    limits (-10.0 170.0)
  end
  begin
     id 4 
     name lfoot
     direction 0.084323 -0.231675 0.969132   
     length 2.09111   
     axis -90 7.62852e-016 20   XYZ
    dof rx rz
    limits (-45.0 90.0)
           (-70.0 20.0)
  end
  begin
     id 5 
     name ltoes
     direction 1.5357e-011 -4.21957e-011 1   
     length 1.04989   
     axis -90 7.62852e-016 20   XYZ
    dof rx
    limits (-90.0 20.0)
  end
  begin
     id 6 
     name rhipjoint
     direction -0.605402 -0.653903 0.45376   
     length 2.45455  
     axis 0 0 0  XYZ 
  end
  begin
     id 7 
     name rfemur
     direction -0.34202 -0.939693 0   
     length 6.64523   
     axis 0 0 -20   XYZ
    dof rx ry rz
    limits (-160.0 20.0)
           (-70.0 70.0)
           (-70.0 60.0)
  end
  begin
     id 8 
     name rtibia
     direction -0.34202 -0.939693 0   
     length 7.3339   
     axis 0 0 -20   XYZ
    dof rx
    limits (-10.0 170.0)
 end
 begin
     id 9 
     name rfoot
     direction -0.120854 -0.332043 0.93549   
     length 2.23135  
     axis -90 -7.62852e-016 -20   XYZ
    dof rx rz
    limits (-45.0 90.0)
           (-20.0 70.0)
  end
  begin
     id 10 
     name rtoes
     direction -1.53563e-011 -4.21914e-011 1   
     length 1.10614   
     axis -90 -7.62852e-016 -20   XYZ
    dof rx
    limits (-90.0 20.0)
  end
  begin
     id 11 
     name lowerback
     direction 0.0319682 0.998615 -0.0417941   
     length 2.02718   
     axis 0 0 0   XYZ
    dof rx ry rz
    limits (-20.0 45.0)
           (-30.0 30.0)
           (-30.0 30.0)
  end
  begin
     id 12 
     name upperback
     direction 7.63181e-005 0.995808 0.0914691   
     length 1.97539   
     axis 0 0 0   XYZ
    dof rx ry rz
    limits (-20.0 45.0)
           (-30.0 30.0)
           (-30.0 30.0)
  end
  begin
     id 13 
     name thorax
     direction -0.016423 0.993627 0.111514   
     length 2.00349   
     axis 0 0 0   XYZ
    dof rx ry rz
    limits (-20.0 45.0)
           (-30.0 30.0)
           (-30.0 30.0)
  end
  begin
     id 14 
     name lowerneck
     direction -0.174763 0.981668 -0.0760716   
     length 1.71436   
     axis 0 0 0   XYZ
    dof rx ry rz
    limits (-20.0 45.0)
           (-30.0 30.0)
           (-30.0 30.0)
  end
  begin
     id 15 
     name upperneck
     direction 0.345458 0.934587 -0.0848868   
     length 1.72805   
     axis 0 0 0   XYZ
    dof rx ry rz
    limits (-20.0 45.0)
           (-30.0 30.0)
           (-30.0 30.0)
  end
  begin
     id 16
     name head
     direction 0.13001 0.989848 -0.0574291  
     length 1.767  
     axis 0 0 0   XYZ
    dof rx ry rz
    limits (-20.0 45.0)
           (-30.0 30.0)
           (-30.0 30.0)
  end
  begin
     id 17 
     name lclavicle
     direction 0.952951 0.290122 0.0878234  
     length 3.54654  
     axis 0 0 0   XYZ
    dof ry rz
    limits (-20.0 10.0)
           (0.0 20.0)
  end
  begin
     id 18 
     name lhumerus
     direction 1 -4.48957e-011 -4.56525e-028   
     length 5.19807   
     axis 180 -30 -90   XYZ
    dof rx ry rz
    limits (-60.0 90.0)
           (-90.0 90.0)
           (-90.0 90.0)
  end
  begin
     id 19
     name lradius
     direction 1 -4.48979e-011 -2.0317e-027   
     length 3.0937   
     axis 180 -30 -90   XYZ
    dof rx
    limits (-10.0 170.0)
  end
  begin
     id 20
     name lwrist
     direction 1 -4.48953e-011 -3.05809e-027   
     length 1.54685   
     axis 8.48514e-016 90 90   XYZ
    dof ry
    limits (-180.0 0.0)
 end
  begin
     id 21 
     name lhand
     direction 1 -4.48952e-011 -6.11639e-027   
     length 0.672632   
     axis 3.9013e-015 90 90   XYZ
    dof rx rz
    limits (-90.0 90.0)
           (-45.0 45.0)
  end
  begin
     id 22 
     name lfingers
     direction 1 -4.48925e-011 -1.22426e-026   
     length 0.542293   
     axis 7.80276e-015 90 90   XYZ
    dof rx
    limits (0.0 90.0)
  end
  begin
     id 23
     name lthumb
     direction 0.707107 -6.3486e-011 0.707107   
     length 0.778628   
     axis -90 45 5.37419e-014   XYZ
    dof rx rz
    limits (-45.0 45.0)
           (-45.0 45.0)
  end
  begin
     id 24 
     name rclavicle
     direction -0.960732 0.273675 -0.0457849   
     length 3.52079  
     axis 0 0 0   XYZ 
    dof ry rz
    limits (-10.0 20.0)
           (-20.0 0.0)
  end
  begin
     id 25 
     name rhumerus
     direction -1 -4.48976e-011 -1.63613e-027  
     length 5.45222   
     axis 180 30 90   XYZ
    dof rx ry rz
    limits (-90.0 60.0)
           (-90.0 90.0)
           (-90.0 90.0)
  end
  begin
     id 26 
     name rradius
     direction -1 -4.48957e-011 -7.00033e-028   
     length 3.01284   
     axis 180 30 90   XYZ
    dof rx
    limits (-10.0 170.0)
  end
  begin
     id 27 
     name rwrist
     direction -1 -4.48983e-011 -3.05543e-027   
     length 1.50642   
     axis 8.48514e-016 -90 -90   XYZ
    dof ry
    limits (-180.0 0.0)
  end
  begin
     id 28
     name rhand
     direction -1 -4.48984e-011 -6.11072e-027   
     length 0.622296   
     axis 3.9013e-015 -90 -90   XYZ
    dof rx rz
    limits (-90.0 90.0)
           (-45.0 45.0)
  end
  begin
     id 29
     name rfingers
     direction -1 -4.48865e-011 -1.22637e-026   
     length 0.501711   
     axis 7.80276e-015 -90 -90   XYZ
    dof rx
    limits (0.0 90.0)
  end
  begin
     id 30
     name rthumb
     direction -0.707107 -6.34932e-011 0.707107   
     length 0.72036   
     axis -90 -45 -5.37419e-014   XYZ
    dof rx rz
    limits (-45.0 45.0)
           (-45.0 45.0)
  end
:hierarchy
  begin
    root lhipjoint rhipjoint lowerback
    lhipjoint lfemur
    lfemur ltibia
    ltibia lfoot
    lfoot ltoes
    rhipjoint rfemur
    rfemur rtibia
    rtibia rfoot
    rfoot rtoes
    lowerback upperback
    upperback thorax
    thorax lowerneck lclavicle rclavicle
    lowerneck upperneck
    upperneck head
    lclavicle lhumerus
    lhumerus lradius
    lradius lwrist
    lwrist lhand lthumb
    lhand lfingers
    rclavicle rhumerus
    rhumerus rradius
    rradius rwrist
    rwrist rhand rthumb
    rhand rfingers
  end

#!OML:ASF H:\Not Pregnant\Project 1\Capture day 1\Session 1\non-pregnant.ASF
:FULLY-SPECIFIED
:DEGREES
317
root 4.46094 18.1437 19.0204 -170.673 2.85989 -171.596
lowerback 5.59171 3.29984 11.7829
upperback -5.64009 5.92535 0.425289
thorax -8.11906 2.32746 -6.8293
lowerneck 16.6487 -8.13079 -32.6101
upperneck -2.06217 -21.0567 39.1103
head 5.05406 -13.1982 19.3486
rclavicle 8.44277e-015 -2.03754e-014
rhumerus -24.5126 -7.31466 -81.9776
rradius 25.52
rwrist 25.9577
rhand -12.9643 -4.71397
rfingers 7.12502
rthumb 13.1276 -34.2807
lclavicle 8.44277e-015 -2.03754e-014
lhumerus -39.0169 -6.81804 87.6965
lradius 44.6261
lwrist 38.0571
lhand -15.783 -13.3843
lfingers 7.12502
lthumb 10.4095 16.3381
rfemur -13.1936 2.68574 33.9382
rtibia 26.1458
rfoot -15.5281 17.9631
rtoes -6.38343
lfemur -70.48 10.1973 -18.7466
ltibia 94.1224
lfoot -19.0589 2.76312
ltoes -30.1376
318
root 4.44627 18.172 18.9227 -170.518 3.39631 -171.838
lowerback 5.63746 3.48448 11.6499
upperback -5.63978 6.14447 0.293412
thorax -8.09568 2.43549 -6.91901
lowerneck 16.5805 -8.1588 -32.6134
upperneck -2.10774 -21.0507 39.1248
head 5.05562 -13.1862 19.3471
rclavicle -1.14583e-014 3.16068e-014
rhumerus -23.9174 -6.53044 -82.3107
rradius 25.8297
rwrist 25.9397
rhand -12.7827 -4.60372
rfingers 7.12502
rthumb 13.3026 -34.1591
lclavicle -1.14583e-014 3.16068e-014
lhumerus -39.0046 -6.78471 87.5761
lradius 44.8538
lwrist 37.9876
lhand -15.7185 -13.2963
lfingers 7.12502
lthumb 10.4717 16.4229
rfemur -12.6395 3.09173 33.5265
rtibia 25.5232
rfoot -15.2683 18.2117
rtoes -7.10825
lfemur -71.1555 9.94607 -19.0471
ltibia 92.2895
lfoot -18.6273 2.55844
ltoes -30.3601
319
root 4.43131 18.2021 18.824 -170.332 3.94986 -172.108
lowerback 5.65849 3.67051 11.4903
upperback -5.65699 6.36113 0.147805
thorax -8.07842 2.54311 -7.00715
lowerneck 16.4981 -8.18523 -32.6203
upperneck -2.13078 -21.046 39.1333
head 5.06584 -13.1739 19.3419
rclavicle 1.9253e-014 3.77691e-015
rhumerus -23.3881 -5.64163 -82.6634
rradius 26.2166
rwrist 25.8791
rhand -12.5985 -4.4386
rfingers 7.12502
rthumb 13.4802 -33.9823
lclavicle 1.9253e-014 3.77691e-015
lhumerus -39.0337 -6.73679 87.447
lradius 45.083
lwrist 37.9409
lhand -15.6478 -13.2062
lfingers 7.12502
lthumb 10.5399 16.5095
rfemur -12.1293 3.48828 33.0721
rtibia 24.9038
rfoot -14.9736 18.531
rtoes -7.86797
lfemur -71.7099 9.70083 -19.3244
ltibia 90.2747
lfoot -18.1226 2.21979
ltoes -30.6372
320
root 4.41573 18.2337 18.7242 -170.117 4.5096 -172.388
lowerback 5.65033 3.85458 11.3323
upperback -5.68843 6.57334 -0.00946505
thorax -8.05948 2.6486 -7.1061
lowerneck 16.4055 -8.20873 -32.6281
upperneck -2.14283 -21.0394 39.1428
head 5.0804 -13.1606 19.3375
rclavicle 6.23594e-014 1.88845e-015
rhumerus -22.9273 -4.66571 -83.0332
rradius 26.6839
rwrist 25.7645
rhand -12.4185 -4.22189
rfingers 7.12502
rthumb 13.6537 -33.7541
lclavicle 6.23594e-014 1.88845e-015
lhumerus -39.092 -6.6757 87.3072
lradius 45.3046
lwrist 37.9206
lhand -15.575 -13.1191
lfingers 7.12502
lthumb 10.6101 16.5931
rfemur -11.6618 3.85683 32.5944
rtibia 24.2898
rfoot -14.6451 18.9138
rtoes -8.6544
lfemur -72.1481 9.45947 -19.5626
ltibia 88.1008
lfoot -17.5698 1.7254
ltoes -30.8919
321
root 4.39956 18.2662 18.6233 -169.872 5.07146 -172.664
lowerback 5.61931 4.03506 11.1867
upperback -5.7402 6.78291 -0.172655
thorax -8.04872 2.75184 -7.21673
lowerneck 16.3136 -8.22517 -32.6377
upperneck -2.14211 -21.0286 39.1502
head 5.09624 -13.1461 19.3345
rclavicle -1.4519e-014 9.74045e-015
rhumerus -22.5487 -3.61754 -83.4116
rradius 27.2283
rwrist 25.5985
rhand -12.2379 -3.97644
rfingers 7.12502
rthumb 13.8278 -33.4968
lclavicle -1.4519e-014 9.74045e-015
lhumerus -39.193 -6.60055 87.1592
lradius 45.5177
lwrist 37.9271
lhand -15.4965 -13.0517
lfingers 7.12502
lthumb 10.6859 16.6566
rfemur -11.2362 4.19742 32.1091
rtibia 23.682
rfoot -14.2787 19.334
rtoes -9.39787
lfemur -72.4734 9.22683 -19.7529
ltibia 85.7946
lfoot -16.9806 1.09064
ltoes -31.1346
322
root 4.3828 18.2989 18.5214 -169.602 5.63288 -172.92
lowerback 5.56403 4.21273 11.076
upperback -5.80124 6.99145 -0.340789
thorax -8.0305 2.85354 -7.34943
lowerneck 16.2136 -8.24057 -32.6441
upperneck -2.14113 -21.0154 39.1626
head 5.11316 -13.1308 19.3335
rclavicle -8.95525e-014 -1.51076e-014
rhumerus -22.2355 -2.51984 -83.798
rradius 27.844
rwrist 25.3795
rhand -12.0409 -3.74914
rfingers 7.12502
rthumb 14.0176 -33.2565
lclavicle -8.95525e-014 -1.51076e-014
lhumerus -39.3229 -6.51921 86.9991
lradius 45.7251
lwrist 37.9626
lhand -15.4155 -13.0061
lfingers 7.12502
lthumb 10.764 16.6981
rfemur -10.8428 4.51158 31.6367
rtibia 23.0765
rfoot -13.8841 19.7587
rtoes -10.0703
lfemur -72.6931 9.00967 -19.8828
ltibia 83.3907
lfoot -16.3458 0.323096
ltoes -31.3146
323
root 4.36517 18.3317 18.418 -169.317 6.19154 -173.149
lowerback 5.49327 4.38512 11.0058
upperback -5.87265 7.19811 -0.508597
thorax -8.01111 2.95269 -7.50241
lowerneck 16.1118 -8.2514 -32.6532
upperneck -2.13993 -20.9977 39.1793
head 5.12966 -13.1142 19.3368
rclavicle 4.56009e-014 1.3418e-014
rhumerus -21.9847 -1.38822 -84.1847
rradius 28.508
rwrist 25.1121
rhand -11.8645 -3.49578
rfingers 7.12502
rthumb 14.1876 -32.9913
lclavicle 4.56009e-014 1.3418e-014
lhumerus -39.4705 -6.41655 86.8298
lradius 45.8958
lwrist 38.0119
lhand -15.3287 -12.9908
lfingers 7.12502
lthumb 10.8477 16.7091
rfemur -10.468 4.79358 31.1824
rtibia 22.4697
rfoot -13.4571 20.1849
rtoes -10.6011
lfemur -72.8029 8.80805 -19.9537
ltibia 80.9246
lfoot -15.647 -0.522156
ltoes -31.4839
324
root 4.34697 18.3641 18.3131 -169.022 6.7514 -173.344
lowerback 5.41388 4.5539 10.9787
upperback -5.95215 7.40618 -0.672142
thorax -7.99118 3.05077 -7.67373
lowerneck 16.0176 -8.25625 -32.6646
upperneck -2.1473 -20.9726 39.2004
head 5.14033 -13.0952 19.3459
rclavicle -5.80824e-016 -2.29596e-014
rhumerus -21.7935 -0.232951 -84.569
rradius 29.2068
rwrist 24.7921
rhand -11.7014 -3.26182
rfingers 7.12502
rthumb 14.3448 -32.7462
lclavicle -5.80824e-016 -2.29596e-014
lhumerus -39.6507 -6.29267 86.6509
lradius 46.0436
lwrist 38.0651
lhand -15.2301 -13.0022
lfingers 7.12502
lthumb 10.9428 16.6926
rfemur -10.1002 5.06608 30.7569
rtibia 21.8565
rfoot -12.9954 20.5843
rtoes -10.994
lfemur -72.813 8.63151 -19.9661
ltibia 78.4366
lfoot -14.8633 -1.4078
ltoes -31.6893
325
root 4.32806 18.3965 18.2064 -168.724 7.31085 -173.509
lowerback 5.32327 4.71991 10.9922
upperback -6.03037 7.61439 -0.831345
thorax -7.95885 3.14814 -7.86055
lowerneck 15.9197 -8.25801 -32.6799
upperneck -2.16492 -20.9408 39.2296
head 5.14806 -13.0735 19.3615
rclavicle 4.40401e-014 -9.14409e-015
rhumerus -21.648 0.935705 -84.9471
rradius 29.9319
rwrist 24.4101
rhand -11.5769 -3.04485
rfingers 7.12502
rthumb 14.4647 -32.5207
lclavicle 4.40401e-014 -9.14409e-015
lhumerus -39.8383 -6.14861 86.4656
lradius 46.1525
lwrist 38.1133
lhand -15.1301 -13.0232
lfingers 7.12502
lthumb 11.0393 16.6665
rfemur -9.72983 5.32737 30.3558
rtibia 21.2365
rfoot -12.503 20.9618
rtoes -11.3823
lfemur -72.7263 8.47391 -19.9263
ltibia 75.97
lfoot -13.9804 -2.31484
ltoes -31.7814
326
root 4.30875 18.4285 18.0981 -168.426 7.86385 -173.647
lowerback 5.22949 4.88056 11.0374
upperback -6.10984 7.81978 -0.984424
thorax -7.92309 3.24316 -8.05701
lowerneck 15.8156 -8.2568 -32.6994
upperneck -2.18862 -20.9031 39.2656
head 5.15466 -13.0493 19.3827
rclavicle 1.57894e-014 -8.15017e-015
rhumerus -21.5483 2.11015 -85.3187
rradius 30.6716
rwrist 23.959
rhand -11.4961 -2.86274
rfingers 7.12502
rthumb 14.5425 -32.333
lclavicle 1.57894e-014 -8.15017e-015
lhumerus -40.0292 -5.9805 86.274
lradius 46.2113
lwrist 38.1417
lhand -15.0232 -13.0422
lfingers 7.12502
lthumb 11.1424 16.642
rfemur -9.35333 5.58794 29.9796
rtibia 20.6105
rfoot -11.973 21.3227
rtoes -11.9041
lfemur -72.5584 8.3276 -19.8385
ltibia 73.5686
lfoot -13.0035 -3.20077
ltoes -31.7623
327
root 4.28928 18.46 17.9881 -168.136 8.41472 -173.764
lowerback 5.13503 5.03754 11.1042
upperback -6.18782 8.02297 -1.13307
thorax -7.8828 3.33666 -8.25934
lowerneck 15.7103 -8.25175 -32.7181
upperneck -2.21919 -20.8585 39.3068
head 5.15744 -13.0222 19.4083
rclavicle 2.6721e-014 -1.35174e-014
rhumerus -21.4985 3.27916 -85.6839
rradius 31.4244
rwrist 23.4442
rhand -11.4628 -2.71507
rfingers 7.12502
rthumb 14.5746 -32.183
lclavicle 2.6721e-014 -1.35174e-014
lhumerus -40.2313 -5.79661 86.0763
lradius 46.2259
lwrist 38.151
lhand -14.9168 -13.0643
lfingers 7.12502
lthumb 11.245 16.6143
rfemur -8.96663 5.85147 29.6213
rtibia 19.9854
rfoot -11.4103 21.6777
rtoes -12.5236
lfemur -72.3061 8.1881 -19.7059
ltibia 71.2751
lfoot -11.9446 -4.03841
ltoes -31.5541
